<svg id="Layer_1" data-name="Layer 1" xmlns="http://www.w3.org/2000/svg" xmlns:xlink="http://www.w3.org/1999/xlink" viewBox="0 0 504.36 504.36">
	<defs>
		<style>
			.primary{fill:#03a9f4;}
      .white{fill:#fff;}
			.black{fill:#000;}
		</style>
	</defs>
	<title>ko-fi</title>
	<path class="primary" mask="url(#heart)" d="M380.19,276.5A196.26,196.26,0,0,1,352,277.78V185.62h19.2a38.37,38.37,0,0,1,32,15.36,45.65,45.65,0,0,1,10.24,29.44A42.87,42.87,0,0,1,380.19,276.5Zm79.37-64a83.86,83.86,0,0,0-37.13-57.61A98.23,98.23,0,0,0,366.11,137H84.49a16.37,16.37,0,0,0-14.08,15.36v3.84s-1.28,124.17,1.28,192a42.11,42.11,0,0,0,42.24,39.68s129.29,0,190.73-1.28h9c35.84-9,38.4-42.24,38.4-60.16C422.43,329,472.36,279.06,459.56,212.5Z"/>
	<mask id="heart">
		<path class="white" d="M380.19,276.5A196.26,196.26,0,0,1,352,277.78V185.62h19.2a38.37,38.37,0,0,1,32,15.36,45.65,45.65,0,0,1,10.24,29.44A42.87,42.87,0,0,1,380.19,276.5Zm79.37-64a83.86,83.86,0,0,0-37.13-57.61A98.23,98.23,0,0,0,366.11,137H84.49a16.37,16.37,0,0,0-14.08,15.36v3.84s-1.28,124.17,1.28,192a42.11,42.11,0,0,0,42.24,39.68s129.29,0,190.73-1.28h9c35.84-9,38.4-42.24,38.4-60.16C422.43,329,472.36,279.06,459.56,212.5Z"/>
		<path class="black" d="M211.22,335.39a4.75,4.75,0,0,0,3.84-1.28s44.8-41,65.28-65.29c17.92-21.76,19.2-56.32-11.52-70.4s-56.32,15.36-56.32,15.36a50.44,50.44,0,0,0-70.41-7.68l-1.28,1.28c-15.36,16.64-10.24,44.8,1.28,60.16a799.58,799.58,0,0,0,66.57,65.29C208.66,335.39,209.94,335.39,211.22,335.39Z"/>
	</mask>
</svg>